<?xml version="1.0" encoding="UTF-8" standalone="no"?>
<!-- Created with Inkscape (http://www.inkscape.org/) -->

<svg
   version="1.1"
   id="svg2"
   width="508"
   height="491"
   viewBox="0 0 508 491"
   sodipodi:docname="people_siluette_vector.png.svg"
   inkscape:version="1.1.2 (0a00cf5339, 2022-02-04)"
   xmlns:inkscape="http://www.inkscape.org/namespaces/inkscape"
   xmlns:sodipodi="http://sodipodi.sourceforge.net/DTD/sodipodi-0.dtd"
   xmlns="http://www.w3.org/2000/svg"
   xmlns:svg="http://www.w3.org/2000/svg">
  <defs
     id="defs6" />
  <sodipodi:namedview
     id="namedview4"
     pagecolor="#ffffff"
     bordercolor="#666666"
     borderopacity="1.0"
     inkscape:pageshadow="2"
     inkscape:pageopacity="0.0"
     inkscape:pagecheckerboard="0"
     showgrid="false"
     inkscape:zoom="1.592668"
     inkscape:cx="231.05882"
     inkscape:cy="245.18606"
     inkscape:window-width="1850"
     inkscape:window-height="1016"
     inkscape:window-x="0"
     inkscape:window-y="0"
     inkscape:window-maximized="1"
     inkscape:current-layer="g8" />
  <g
     inkscape:groupmode="layer"
     inkscape:label="Image"
     id="g8">
    <path
       style="fill:#000000;stroke:none;stroke-width:0.792902"
       d="m 305.90393,71.893444 c -3.44358,12.135834 -8.61647,25.351438 -8.72192,38.059276 h 0.7929 l 1.5858,-7.92902 c 7.59838,3.09549 15.53453,0.21726 15.85803,11.10062 8.1439,-0.4464 6.82372,-6.64848 9.20559,-12.68642 1.01492,-2.574554 3.81941,-5.667346 2.91947,-8.619157 -0.8722,-2.860234 -5.184,-4.352395 -7.36765,-6.06419 -5.15623,-4.041737 -8.41506,-11.00706 -14.27222,-13.861109 m -57.08892,0.792902 c -5.99433,4.619444 -14.20324,6.471266 -21.40834,8.488804 -22.0379,6.171311 -44.04806,4.990522 -66.60373,4.990522 l 1.5858,33.301858 h 0.7929 c -0.0769,-3.7084 -3.08359,-12.70941 0.26404,-15.30855 4.37602,-3.39837 17.96239,0.55345 23.52301,0.17206 13.55941,-0.92848 27.08076,-2.35412 40.43798,-5.042057 6.45422,-1.298773 12.54053,-4.235918 19.02964,-5.194295 l -14.27223,42.023782 h -0.7929 c -1.19966,-11.63742 -15.14521,-8.9249 -11.89352,1.5858 -2.71728,-1.76579 -7.4509,-5.88729 -10.29821,-2.03458 -1.15129,1.55884 -0.85316,4.05172 -2.73234,5.10152 -2.07502,1.15923 -4.43945,-0.86822 -6.57395,0.20933 -2.89726,1.4629 -3.43167,5.40442 -6.56126,7.03145 2.59914,-14.21038 -15.12697,-17.20121 -23.78704,-9.51482 l -3.17161,-10.30772 c -2.63323,0.8714 -2.96307,2.05362 -3.17161,4.75741 h -0.7929 c -8.02099,-12.70942 -10.16262,9.1485 -14.31187,9.8074 -1.39075,0.22043 -2.27483,-0.93404 -2.96624,-1.94023 -1.75152,-2.54759 -2.65305,-5.24901 -5.72475,-6.58505 -3.68938,-1.60562 -5.8651,1.35904 -4.6924,4.83432 0.60023,1.77769 1.27261,3.09628 1.52951,4.98418 -10.65501,-9.25554 -16.85709,-17.77606 -32.50587,-15.29428 -2.46616,0.39091 -6.279067,-0.0436 -8.258228,1.77452 -2.911297,2.67446 0.195291,8.3778 -2.052585,11.93396 -0.511025,-2.14638 -0.615767,-4.15718 -0.836352,-6.33925 -0.392645,-3.88442 -4.810534,-7.04414 -8.089896,-3.5181 -2.602778,2.79815 0.856175,14.79713 -6.155374,13.8845 -4.822427,-0.62798 -5.10922,-10.84928 -7.84584,-14.15409 -2.833751,-3.42137 -8.316348,-2.43976 -10.337692,1.48828 -1.582076,3.07408 0.06771,10.16817 -0.829613,14.18897 -4.725059,0 -15.400685,-2.00921 -19.305566,0.8151 -5.077028,3.67193 -6.236195,17.98856 -7.205247,23.76485 -3.979812,23.72361 -3.479444,47.74377 1.138574,71.36114 1.813905,9.27616 4.035496,18.93449 7.491596,27.75155 0.990889,2.52777 1.876877,7.03146 4.581781,8.2438 7.743556,3.46895 23.039579,0.47812 31.535598,0.47812 h 75.325644 264.82913 c 12.90685,-40.21279 19.63462,-80.23291 9.21748,-122.10684 -0.65732,-2.64274 -1.16953,-7.72127 -3.4515,-9.49262 -6.13785,-4.76533 -21.26562,0.93721 -28.71731,-1.06724 -4.78437,-1.28688 -10.73272,-13.95507 -15.90085,-6.09107 -8.16371,-4.67733 -7.3383,2.86792 -14.27223,3.96451 -0.19188,-0.78577 -0.24421,-1.69523 -0.68189,-2.41994 -4.54809,-7.53256 -5.44248,3.22077 -8.03923,2.71252 -4.57346,-0.89598 -6.635,-15.71293 -13.41273,-7.34703 -0.69616,0.85871 -1.16556,2.12101 -1.6532,3.08994 -0.79131,-1.65796 -1.56598,-3.22235 -2.80052,-4.6139 -0.80163,-0.90311 -1.73091,-1.79354 -2.7815,-2.40407 -9.93982,-5.78184 -5.25615,9.86448 -13.46506,10.55272 -2.66256,0.2236 -2.61261,-5.6177 -4.1992,-7.15514 -8.26521,-8.00831 -8.8139,6.44153 -11.64138,9.9636 -0.28228,-8.66721 -5.82624,-3.29054 -10.16976,-7.29628 -4.82718,-4.45214 -2.76168,-9.27933 -2.51667,-14.90496 h -0.7929 l -7.23681,7.57459 -0.44561,6.52478 -2.99083,2.01159 -4.00257,-5.21808 -6.73252,-2.17097 c -0.17286,1.61911 -0.24501,3.13117 -0.15303,4.76059 0.85712,15.23084 -9.64565,-4.61469 -12.70308,-6.31229 -5.11976,-2.84335 -5.89601,3.48559 -8.34449,5.8191 -3.47846,3.31591 -7.11867,-0.73026 -7.34386,6.04032 -11.66041,-4.03983 -6.20445,-11.21242 -3.84399,-19.82253 3.5419,-12.92271 8.59109,-24.69334 10.52657,-38.059276 0.66286,-4.578055 2.68238,-10.283854 -0.33937,-14.272228 m 45.19539,45.195384 -0.7929,7.13612 h 0.7929 v -7.13612 m -130.03585,15.06513 0.7929,8.72192 h -1.58581 z"
       id="path1463"
       inkscape:export-filename="/home/ana/Documents/Naranja/naranjaCyT.github.io/assets/img/people_siluette.png"
       inkscape:export-xdpi="207.60001"
       inkscape:export-ydpi="207.60001" />
  </g>
</svg>
